<?xml version="1.0" standalone="no"?>
<!DOCTYPE svg PUBLIC "-//W3C//DTD SVG 20010904//EN"
 "http://www.w3.org/TR/2001/REC-SVG-20010904/DTD/svg10.dtd">
<svg version="1.0" xmlns="http://www.w3.org/2000/svg"
 width="1528.000000pt" height="273.000000pt" viewBox="0 0 1528.000000 273.000000"
 preserveAspectRatio="xMidYMid meet">

<g transform="translate(0.000000,273.000000) scale(0.100000,-0.100000)"
fill="#fff" stroke="none">
<path d="M0 1365 l0 -1365 305 0 305 0 0 1065 0 1065 755 0 755 0 0 -1065 0
-1065 280 0 c269 0 280 1 290 20 7 14 10 362 8 1147 -4 1266 2 1168 -79 1294
-56 86 -143 168 -221 207 -124 63 -93 62 -1300 62 l-1098 0 0 -1365z"/>
<path d="M7002 1368 l3 -1363 303 -3 302 -2 0 1065 0 1065 755 0 755 0 0
-1065 0 -1065 293 2 292 3 3 1063 2 1062 750 0 750 0 0 -1065 0 -1065 289 0
290 0 6 53 c4 28 5 540 2 1137 -5 1165 -3 1130 -58 1246 -57 122 -160 210
-306 261 l-78 28 -2178 3 -2177 2 2 -1362z"/>
<path d="M3517 2713 c-4 -3 -7 -613 -7 -1355 l0 -1348 1340 0 1340 0 -2 1353
-3 1352 -1331 3 c-732 1 -1334 -1 -1337 -5z m2083 -1358 l0 -775 -750 0 -750
0 0 775 0 775 750 0 750 0 0 -775z"/>
<path d="M12610 1360 l0 -1360 875 0 875 0 0 285 0 285 -580 0 -580 0 0 780 0
780 750 0 750 0 0 -1065 0 -1065 290 0 290 0 0 1360 0 1360 -1335 0 -1335 0 0
-1360z"/>
</g>
</svg>
